<svg xmlns="http://www.w3.org/2000/svg" width="960" height="642" viewBox="0 0 960 642">
<rect width="960" height="642" fill="#0d1117" rx="12"/>
<text x="480" y="30" fill="#e6edf3" font-size="21" font-weight="700" text-anchor="middle" font-family="system-ui,-apple-system,Segoe UI,sans-serif">Airlock Digital — MITRE ATT&CK Coverage</text>
<text x="480" y="50" fill="#8b949e" font-size="12.5" text-anchor="middle" font-family="system-ui,-apple-system,Segoe UI,sans-serif">Enterprise v18.1 · Windows · 472 Techniques</text>
<rect x="350" y="68" width="12" height="12" rx="2" fill="#2ea043"/>
<text x="367" y="79" fill="#8b949e" font-size="11" font-family="system-ui,sans-serif">Covered (214)</text>
<rect x="490" y="68" width="12" height="12" rx="2" fill="#21262d" stroke="#30363d" stroke-width="1"/>
<text x="507" y="79" fill="#8b949e" font-size="11" font-family="system-ui,sans-serif">Not Covered (258)</text>
<text x="195" y="114" fill="#e6edf3" font-size="13" font-weight="500" text-anchor="end" font-family="system-ui,-apple-system,Segoe UI,sans-serif">Execution</text>
<clipPath id="clipL0"><rect x="215" y="97" width="444" height="24"/></clipPath>
<rect x="215" y="97" width="450" height="24" rx="5" fill="#2ea043" clip-path="url(#clipL0)"/>
<clipPath id="clipR0"><rect x="659" y="97" width="56" height="24"/></clipPath>
<rect x="653" y="97" width="62" height="24" rx="5" fill="#21262d" stroke="#30363d" stroke-width="0.5" clip-path="url(#clipR0)"/>
<text x="649" y="114" fill="#fff" font-size="11" font-weight="700" text-anchor="end" font-family="system-ui,sans-serif">89%</text>
<text x="729" y="114" fill="#8b949e" font-size="12" font-family="'SF Mono','Fira Code','JetBrains Mono',monospace">24/27</text>
<line x1="16" x2="944" y1="130" y2="130" stroke="#21262d" stroke-width="0.5"/>
<text x="195" y="156" fill="#e6edf3" font-size="13" font-weight="500" text-anchor="end" font-family="system-ui,-apple-system,Segoe UI,sans-serif">Persistence</text>
<clipPath id="clipL1"><rect x="215" y="139" width="368" height="24"/></clipPath>
<rect x="215" y="139" width="374" height="24" rx="5" fill="#2ea043" clip-path="url(#clipL1)"/>
<clipPath id="clipR1"><rect x="583" y="139" width="132" height="24"/></clipPath>
<rect x="577" y="139" width="138" height="24" rx="5" fill="#21262d" stroke="#30363d" stroke-width="0.5" clip-path="url(#clipR1)"/>
<text x="573" y="156" fill="#fff" font-size="11" font-weight="700" text-anchor="end" font-family="system-ui,sans-serif">74%</text>
<text x="729" y="156" fill="#8b949e" font-size="12" font-family="'SF Mono','Fira Code','JetBrains Mono',monospace">67/91</text>
<line x1="16" x2="944" y1="172" y2="172" stroke="#21262d" stroke-width="0.5"/>
<text x="195" y="198" fill="#e6edf3" font-size="13" font-weight="500" text-anchor="end" font-family="system-ui,-apple-system,Segoe UI,sans-serif">Lateral Movement</text>
<clipPath id="clipL2"><rect x="215" y="181" width="353" height="24"/></clipPath>
<rect x="215" y="181" width="359" height="24" rx="5" fill="#2ea043" clip-path="url(#clipL2)"/>
<clipPath id="clipR2"><rect x="568" y="181" width="147" height="24"/></clipPath>
<rect x="562" y="181" width="153" height="24" rx="5" fill="#21262d" stroke="#30363d" stroke-width="0.5" clip-path="url(#clipR2)"/>
<text x="558" y="198" fill="#fff" font-size="11" font-weight="700" text-anchor="end" font-family="system-ui,sans-serif">71%</text>
<text x="729" y="198" fill="#8b949e" font-size="12" font-family="'SF Mono','Fira Code','JetBrains Mono',monospace">12/17</text>
<line x1="16" x2="944" y1="214" y2="214" stroke="#21262d" stroke-width="0.5"/>
<text x="195" y="240" fill="#e6edf3" font-size="13" font-weight="500" text-anchor="end" font-family="system-ui,-apple-system,Segoe UI,sans-serif">Privilege Escalation</text>
<clipPath id="clipL3"><rect x="215" y="223" width="320" height="24"/></clipPath>
<rect x="215" y="223" width="326" height="24" rx="5" fill="#2ea043" clip-path="url(#clipL3)"/>
<clipPath id="clipR3"><rect x="535" y="223" width="180" height="24"/></clipPath>
<rect x="529" y="223" width="186" height="24" rx="5" fill="#21262d" stroke="#30363d" stroke-width="0.5" clip-path="url(#clipR3)"/>
<text x="525" y="240" fill="#fff" font-size="11" font-weight="700" text-anchor="end" font-family="system-ui,sans-serif">64%</text>
<text x="729" y="240" fill="#8b949e" font-size="12" font-family="'SF Mono','Fira Code','JetBrains Mono',monospace">48/75</text>
<line x1="16" x2="944" y1="256" y2="256" stroke="#21262d" stroke-width="0.5"/>
<text x="195" y="282" fill="#e6edf3" font-size="13" font-weight="500" text-anchor="end" font-family="system-ui,-apple-system,Segoe UI,sans-serif">Discovery</text>
<clipPath id="clipL4"><rect x="215" y="265" width="250" height="24"/></clipPath>
<rect x="215" y="265" width="256" height="24" rx="5" fill="#2ea043" clip-path="url(#clipL4)"/>
<clipPath id="clipR4"><rect x="465" y="265" width="250" height="24"/></clipPath>
<rect x="459" y="265" width="256" height="24" rx="5" fill="#21262d" stroke="#30363d" stroke-width="0.5" clip-path="url(#clipR4)"/>
<text x="455" y="282" fill="#fff" font-size="11" font-weight="700" text-anchor="end" font-family="system-ui,sans-serif">50%</text>
<text x="729" y="282" fill="#8b949e" font-size="12" font-family="'SF Mono','Fira Code','JetBrains Mono',monospace">21/42</text>
<line x1="16" x2="944" y1="298" y2="298" stroke="#21262d" stroke-width="0.5"/>
<text x="195" y="324" fill="#e6edf3" font-size="13" font-weight="500" text-anchor="end" font-family="system-ui,-apple-system,Segoe UI,sans-serif">Defense Evasion</text>
<clipPath id="clipL5"><rect x="215" y="307" width="233" height="24"/></clipPath>
<rect x="215" y="307" width="239" height="24" rx="5" fill="#2ea043" clip-path="url(#clipL5)"/>
<clipPath id="clipR5"><rect x="448" y="307" width="267" height="24"/></clipPath>
<rect x="442" y="307" width="273" height="24" rx="5" fill="#21262d" stroke="#30363d" stroke-width="0.5" clip-path="url(#clipR5)"/>
<text x="438" y="324" fill="#fff" font-size="11" font-weight="700" text-anchor="end" font-family="system-ui,sans-serif">47%</text>
<text x="729" y="324" fill="#8b949e" font-size="12" font-family="'SF Mono','Fira Code','JetBrains Mono',monospace">77/165</text>
<line x1="16" x2="944" y1="340" y2="340" stroke="#21262d" stroke-width="0.5"/>
<text x="195" y="366" fill="#e6edf3" font-size="13" font-weight="500" text-anchor="end" font-family="system-ui,-apple-system,Segoe UI,sans-serif">Impact</text>
<clipPath id="clipL6"><rect x="215" y="349" width="150" height="24"/></clipPath>
<rect x="215" y="349" width="156" height="24" rx="5" fill="#2ea043" clip-path="url(#clipL6)"/>
<clipPath id="clipR6"><rect x="365" y="349" width="350" height="24"/></clipPath>
<rect x="359" y="349" width="356" height="24" rx="5" fill="#21262d" stroke="#30363d" stroke-width="0.5" clip-path="url(#clipR6)"/>
<text x="355" y="366" fill="#fff" font-size="11" font-weight="700" text-anchor="end" font-family="system-ui,sans-serif">30%</text>
<text x="729" y="366" fill="#8b949e" font-size="12" font-family="'SF Mono','Fira Code','JetBrains Mono',monospace">9/30</text>
<line x1="16" x2="944" y1="382" y2="382" stroke="#21262d" stroke-width="0.5"/>
<text x="195" y="408" fill="#e6edf3" font-size="13" font-weight="500" text-anchor="end" font-family="system-ui,-apple-system,Segoe UI,sans-serif">Initial Access</text>
<clipPath id="clipL7"><rect x="215" y="391" width="143" height="24"/></clipPath>
<rect x="215" y="391" width="149" height="24" rx="5" fill="#2ea043" clip-path="url(#clipL7)"/>
<clipPath id="clipR7"><rect x="358" y="391" width="357" height="24"/></clipPath>
<rect x="352" y="391" width="363" height="24" rx="5" fill="#21262d" stroke="#30363d" stroke-width="0.5" clip-path="url(#clipR7)"/>
<text x="348" y="408" fill="#fff" font-size="11" font-weight="700" text-anchor="end" font-family="system-ui,sans-serif">29%</text>
<text x="729" y="408" fill="#8b949e" font-size="12" font-family="'SF Mono','Fira Code','JetBrains Mono',monospace">6/21</text>
<line x1="16" x2="944" y1="424" y2="424" stroke="#21262d" stroke-width="0.5"/>
<text x="195" y="450" fill="#e6edf3" font-size="13" font-weight="500" text-anchor="end" font-family="system-ui,-apple-system,Segoe UI,sans-serif">Credential Access</text>
<clipPath id="clipL8"><rect x="215" y="433" width="132" height="24"/></clipPath>
<rect x="215" y="433" width="138" height="24" rx="5" fill="#2ea043" clip-path="url(#clipL8)"/>
<clipPath id="clipR8"><rect x="347" y="433" width="368" height="24"/></clipPath>
<rect x="341" y="433" width="374" height="24" rx="5" fill="#21262d" stroke="#30363d" stroke-width="0.5" clip-path="url(#clipR8)"/>
<text x="337" y="450" fill="#fff" font-size="11" font-weight="700" text-anchor="end" font-family="system-ui,sans-serif">26%</text>
<text x="729" y="450" fill="#8b949e" font-size="12" font-family="'SF Mono','Fira Code','JetBrains Mono',monospace">14/53</text>
<line x1="16" x2="944" y1="466" y2="466" stroke="#21262d" stroke-width="0.5"/>
<text x="195" y="492" fill="#e6edf3" font-size="13" font-weight="500" text-anchor="end" font-family="system-ui,-apple-system,Segoe UI,sans-serif">Command & Control</text>
<clipPath id="clipL9"><rect x="215" y="475" width="67" height="24"/></clipPath>
<rect x="215" y="475" width="73" height="24" rx="5" fill="#2ea043" clip-path="url(#clipL9)"/>
<clipPath id="clipR9"><rect x="282" y="475" width="433" height="24"/></clipPath>
<rect x="276" y="475" width="439" height="24" rx="5" fill="#21262d" stroke="#30363d" stroke-width="0.5" clip-path="url(#clipR9)"/>
<text x="272" y="492" fill="#fff" font-size="11" font-weight="700" text-anchor="end" font-family="system-ui,sans-serif">13%</text>
<text x="729" y="492" fill="#8b949e" font-size="12" font-family="'SF Mono','Fira Code','JetBrains Mono',monospace">6/45</text>
<line x1="16" x2="944" y1="508" y2="508" stroke="#21262d" stroke-width="0.5"/>
<text x="195" y="534" fill="#e6edf3" font-size="13" font-weight="500" text-anchor="end" font-family="system-ui,-apple-system,Segoe UI,sans-serif">Collection</text>
<clipPath id="clipL10"><rect x="215" y="517" width="62" height="24"/></clipPath>
<rect x="215" y="517" width="68" height="24" rx="5" fill="#2ea043" clip-path="url(#clipL10)"/>
<clipPath id="clipR10"><rect x="277" y="517" width="438" height="24"/></clipPath>
<rect x="271" y="517" width="444" height="24" rx="5" fill="#21262d" stroke="#30363d" stroke-width="0.5" clip-path="url(#clipR10)"/>
<text x="267" y="534" fill="#fff" font-size="11" font-weight="700" text-anchor="end" font-family="system-ui,sans-serif">12%</text>
<text x="729" y="534" fill="#8b949e" font-size="12" font-family="'SF Mono','Fira Code','JetBrains Mono',monospace">4/32</text>
<line x1="16" x2="944" y1="550" y2="550" stroke="#21262d" stroke-width="0.5"/>
<text x="195" y="576" fill="#e6edf3" font-size="13" font-weight="500" text-anchor="end" font-family="system-ui,-apple-system,Segoe UI,sans-serif">Exfiltration</text>
<rect x="215" y="559" width="500" height="24" rx="5" fill="#21262d" stroke="#30363d" stroke-width="0.5"/>
<text x="223" y="576" fill="#484f58" font-size="11" font-weight="600" text-anchor="start" font-family="system-ui,sans-serif">0%</text>
<text x="729" y="576" fill="#8b949e" font-size="12" font-family="'SF Mono','Fira Code','JetBrains Mono',monospace">0/17</text>
<text x="480" y="628" fill="#484f58" font-size="10.5" text-anchor="middle" font-family="system-ui,sans-serif">airlock.digital</text>
</svg>